<?xml version="1.0" encoding="UTF-8"?>
<!DOCTYPE svg PUBLIC "-//W3C//DTD SVG 1.1//EN" "http://www.w3.org/Graphics/SVG/1.1/DTD/svg11.dtd">
<svg xmlns="http://www.w3.org/2000/svg" xmlns:xlink="http://www.w3.org/1999/xlink" version="1.1" width="12px" height="24px" viewBox="-0.5 -0.5 12 24"><defs/><g><path d="M 6.67 1.83 L 10 1.83" fill="none" stroke="#000000" stroke-miterlimit="10" pointer-events="stroke"/><path d="M 6.67 1.83 C 6.67 2.85 5.92 3.67 5 3.67 C 4.08 3.67 3.33 2.85 3.33 1.83" fill="none" stroke="#000000" stroke-miterlimit="10" pointer-events="all"/><path d="M 0 1.8 L 3.33 1.8" fill="none" stroke="#000000" stroke-miterlimit="10" pointer-events="stroke"/><path d="M 0 20.17 L 3.33 20.17" fill="none" stroke="#000000" stroke-miterlimit="10" pointer-events="stroke"/><path d="M 6.67 20.17 L 10 20.17" fill="none" stroke="#000000" stroke-miterlimit="10" pointer-events="stroke"/><path d="M 6.67 20.17 C 6.67 21.18 5.92 22 5 22 C 4.08 22 3.33 21.18 3.33 20.17" fill="none" stroke="#000000" stroke-miterlimit="10" transform="rotate(180,5,20.17)" pointer-events="all"/><path d="M 0 20.17 L 0 1.83" fill="none" stroke="#000000" stroke-miterlimit="10" pointer-events="stroke"/><path d="M 10 20.17 L 10 1.83" fill="none" stroke="#000000" stroke-miterlimit="10" pointer-events="stroke"/><path d="M 0 5.5 L 10 5.5" fill="none" stroke="#999999" stroke-miterlimit="10" pointer-events="stroke"/><path d="M 0 16.5 L 10 16.5" fill="none" stroke="#999999" stroke-miterlimit="10" pointer-events="stroke"/><rect x="3.33" y="9.17" width="3.33" height="3.67" fill="#0800fa" stroke="none" pointer-events="all"/></g></svg>